<?xml version="1.0" encoding="iso-8859-1"?>
<!-- Uploaded to: SVG Repo, www.svgrepo.com, Generator: SVG Repo Mixer Tools -->
<!DOCTYPE svg PUBLIC "-//W3C//DTD SVG 1.1//EN" "http://www.w3.org/Graphics/SVG/1.1/DTD/svg11.dtd">
<svg fill="#000000" version="1.1" id="Capa_1" xmlns="http://www.w3.org/2000/svg" xmlns:xlink="http://www.w3.org/1999/xlink" 
	 width="800px" height="800px" viewBox="0 0 426.12 426.12"
	 xml:space="preserve">
<g>
	<g>
		<path d="M376.694,267.319c0-30.281-22.569-55.324-51.752-59.357v-2.686c0-6.345-5.143-11.487-11.485-11.487H60.913
			c-6.343,0-11.487,5.144-11.487,11.487v83.086c0,75.957,61.799,137.758,137.759,137.758c62.484,0,115.352-41.834,132.156-98.951
			C351.188,325.777,376.694,299.505,376.694,267.319z M301.971,288.362c0,63.294-51.493,114.785-114.786,114.785
			S72.398,351.656,72.398,288.362v-71.6h229.572V288.362z M324.083,303.587c0.552-5.002,0.858-10.077,0.858-15.227v-57.106
			c16.453,3.758,28.778,18.485,28.778,36.063C353.721,285.198,340.97,300.157,324.083,303.587z"/>
		<path d="M139.858,95.207c13.573,2.04,22.95,14.75,20.909,28.323c-0.99,6.572-4.481,12.366-9.829,16.315
			c-5.35,3.947-11.91,5.568-18.495,4.588c-6.285-0.932-12.12,3.37-13.068,9.646c-0.945,6.271,3.375,12.12,9.647,13.067
			c2.418,0.365,4.834,0.544,7.235,0.544c10.151,0,20.003-3.226,28.324-9.365c10.286-7.589,17-18.731,18.901-31.381
			c3.929-26.097-14.108-50.528-40.203-54.455c-13.573-2.046-22.951-14.75-20.909-28.329c0.99-6.572,4.481-12.366,9.83-16.31
			c5.351-3.955,11.923-5.564,18.495-4.589c6.281,0.937,12.12-3.375,13.067-9.646c0.946-6.27-3.373-12.125-9.646-13.067
			c-12.636-1.911-25.271,1.223-35.558,8.815c-10.286,7.595-17,18.74-18.902,31.382C95.728,66.85,113.765,91.281,139.858,95.207z"/>
		<path d="M231.094,95.207c13.573,2.04,22.951,14.75,20.909,28.323c-0.99,6.572-4.481,12.366-9.828,16.315
			c-5.353,3.947-11.914,5.568-18.495,4.588c-6.282-0.932-12.123,3.37-13.068,9.646c-0.945,6.271,3.373,12.12,9.647,13.067
			c2.416,0.365,4.834,0.544,7.233,0.544c10.152,0,20.003-3.226,28.324-9.365c10.285-7.589,17-18.731,18.9-31.381
			c3.929-26.097-14.108-50.528-40.202-54.455c-13.573-2.046-22.95-14.75-20.909-28.329c0.989-6.572,4.48-12.366,9.83-16.31
			c5.353-3.955,11.92-5.564,18.494-4.589c6.256,0.937,12.119-3.375,13.067-9.646c0.944-6.27-3.375-12.125-9.646-13.067
			c-12.652-1.911-25.274,1.223-35.561,8.815c-10.286,7.595-17,18.74-18.9,31.382C186.962,66.85,205,91.281,231.094,95.207z"/>
	</g>
</g>
</svg>