<?xml version="1.0" encoding="iso-8859-1"?>
<!-- Uploaded to: SVG Repo, www.svgrepo.com, Generator: SVG Repo Mixer Tools -->
<!DOCTYPE svg PUBLIC "-//W3C//DTD SVG 1.1//EN" "http://www.w3.org/Graphics/SVG/1.1/DTD/svg11.dtd">
<svg fill="#000000" version="1.1" id="Capa_1" xmlns="http://www.w3.org/2000/svg" xmlns:xlink="http://www.w3.org/1999/xlink" 
	 width="800px" height="800px" viewBox="0 0 464.679 464.679"
	 xml:space="preserve">
<g>
	<g>
		<path d="M326.622,249.739c-6.062-15.481-11.292-28.852-9.45-60.555c2.763-47.455,30.771-96.711,31.056-97.201
			c1.641-2.857,1.637-6.373-0.014-9.226c-1.651-2.851-4.695-4.607-7.989-4.607H207.332L188.025,6.822
			c-1.331-4.921-6.398-7.831-11.323-6.499c-4.922,1.332-7.831,6.401-6.499,11.32l18.001,66.506h-63.748
			c-3.138,0-6.059,1.593-7.758,4.228c-1.701,2.636-1.945,5.953-0.651,8.812c9.057,19.993,32.796,76.318,33.852,96.541
			c0.726,13.958-6.547,37.854-12.966,58.937c-4.335,14.247-8.432,27.706-10.1,37.988c-3.894,24.016,3.276,48.186,20.183,68.056
			c18.531,21.777,47.042,36.054,76.091,38.596v54.912H173.16c-5.097,0-9.23,4.133-9.23,9.23c0,5.099,4.133,9.229,9.23,9.229h118.361
			c5.098,0,9.23-4.132,9.23-9.229c0-5.099-4.134-9.23-9.23-9.23h-49.953v-54.943c29.438-2.75,58.211-18.37,76.764-42.221
			c17.289-22.219,23.223-48.603,16.71-74.283C332.506,264.771,329.515,257.129,326.622,249.739z M325.044,96.612
			c-9.206,19.073-24.188,55.143-26.302,91.501c-1.921,33.057,3.24,49.091,9.223,64.586h-53.387l-42.25-156.087H325.044z
			 M138.608,96.612h54.596l42.25,156.087h-81.057c0.069-0.219,0.132-0.436,0.199-0.654c7.195-23.635,14.634-48.078,13.737-65.272
			C167.227,165.523,148.527,119.628,138.608,96.612z M303.761,337.722c-16.814,21.608-44.85,35.574-71.422,35.574
			c-26.872,0-54.179-12.471-71.262-32.549c-13.344-15.68-19.034-34.553-16.021-53.137c0.75-4.619,2.144-10.244,3.875-16.451h165.848
			c0.826,2.578,1.633,5.245,2.37,8.152C322.23,299.351,317.475,320.094,303.761,337.722z"/>
	</g>
</g>
</svg>