<?xml version="1.0" encoding="iso-8859-1"?>
<!-- Uploaded to: SVG Repo, www.svgrepo.com, Generator: SVG Repo Mixer Tools -->
<!DOCTYPE svg PUBLIC "-//W3C//DTD SVG 1.1//EN" "http://www.w3.org/Graphics/SVG/1.1/DTD/svg11.dtd">
<svg fill="#000000" version="1.1" id="Capa_1" xmlns="http://www.w3.org/2000/svg" xmlns:xlink="http://www.w3.org/1999/xlink" 
	 width="800px" height="800px" viewBox="0 0 479.069 479.069"
	 xml:space="preserve">
<g>
	<g>
		<path d="M239.49,134.985c-25.494,0-46.234,20.742-46.234,46.233c0,25.492,20.74,46.234,46.234,46.234
			c25.495,0,46.236-20.742,46.236-46.234C285.725,155.727,264.983,134.985,239.49,134.985z M239.49,209.556
			c-15.626,0-28.337-12.711-28.337-28.337c0-15.625,12.711-28.336,28.337-28.336c15.625,0,28.336,12.711,28.336,28.336
			C267.826,196.845,255.115,209.556,239.49,209.556z"/>
		<path d="M409.718,466.821l-29.235-121.558c-0.567-2.362-2.071-4.391-4.167-5.622l-45.88-26.951
			c-0.081-147.324-0.192-148.421-0.22-148.596C329.4,149.649,271.931,47.681,247.258,4.509C245.665,1.722,242.7,0,239.49,0
			c-3.212,0-6.177,1.722-7.77,4.509c-24.67,43.167-82.141,145.135-82.927,159.188c-0.055,0.524-0.169,1.665-0.25,148.993
			l-45.88,26.951c-2.095,1.231-3.599,3.26-4.166,5.622L68.972,468.027c-0.643,2.665-0.026,5.479,1.672,7.634
			c1.695,2.149,4.286,3.408,7.028,3.408h79.788c4.941,0,8.948-4.007,8.948-8.949v-67.194h42.507v67.194
			c0,4.942,4.008,8.949,8.95,8.949h43.246c4.942,0,8.949-4.007,8.949-8.949v-67.194h42.512v67.194c0,4.942,4.006,8.949,8.949,8.949
			h79.787c0.03-0.005,0.059-0.005,0.09,0c4.94,0,8.949-4.007,8.949-8.949C410.347,468.954,410.123,467.844,409.718,466.821z
			 M148.511,461.172H89.029l25.979-108.023l33.504-19.682L148.511,461.172L148.511,461.172z M252.162,461.172h-25.35v-134.39h25.35
			V461.172z M270.059,385.028v-67.195c0-4.942-4.007-8.948-8.949-8.948h-43.246c-4.942,0-8.95,4.006-8.95,8.948v67.195h-42.507
			c0-0.022,0-0.044,0-0.062c0.027-72.937,0.106-210.971,0.224-219.691c2.265-10.832,41.565-82.986,72.858-138.226
			c31.317,55.287,70.654,127.512,72.86,138.296c0.115,9.351,0.195,146.869,0.222,219.617c0,0.022,0,0.044,0,0.066L270.059,385.028
			L270.059,385.028z M330.468,461.172V333.467l33.503,19.682l25.979,108.023H330.468z"/>
	</g>
</g>
</svg>